# xmcd
#
# Track frame offsets: 
#        150
#        18278
#        35391
#        59106
#        74797
#        92991
#        110655
#        126202
#        138445
#        154302
#        168640
#        179989
#        198934
#        215374
#        233221
#        250095
#        267922
#        287615
#        307432
#        319487
#        339812
#
# Disc length: 4778 seconds
#
# Revision: 0
# Processed by: cddbd v1.5.2PL0 Copyright (c) Steve Scherf et al.
# Submitted via: ExactAudioCopy v0.95a5
#
DISCID=5412a815
DTITLE=Joe Cocker - All Stars [CD I)
DYEAR=2005
DGENRE=Blues
TTITLE0=You Can't Have My Heart
TTITLE1=Don't Let Me Be Misunderstood
TTITLE2=Respect Yourself
TTITLE3=While You See A Chance
TTITLE4=What Becomes Of The Broken-Hearted
TTITLE5=Never Tear Us Apart
TTITLE6=Bye Bye Blackbird
TTITLE7=You Are So Beautiful
TTITLE8=No Ordinary World
TTITLE9=Dignity
TTITLE10=So Good, So Right
TTITLE11=You Can Leave Your Hat On
TTITLE12=First We Take Manhattan
TTITLE13=Ain't Gonna Cry Again
TTITLE14=Summer In The City
TTITLE15=It's Only Love
TTITLE16=This Is Your Life
TTITLE17=You Took It So Hard
TTITLE18=That's The Way Her Love Is
TTITLE19=When The Night Comes
TTITLE20=Let The Healing Begin
EXTD=
EXTT0=
EXTT1=
EXTT2=
EXTT3=
EXTT4=
EXTT5=
EXTT6=
EXTT7=
EXTT8=
EXTT9=
EXTT10=
EXTT11=
EXTT12=
EXTT13=
EXTT14=
EXTT15=
EXTT16=
EXTT17=
EXTT18=
EXTT19=
EXTT20=
PLAYORDER=
